<?xml version="1.0" encoding="UTF-8" standalone="no"?>
<!-- Generator: Adobe Illustrator 17.0.0, SVG Export Plug-In . SVG Version: 6.00 Build 0)  -->

<svg
   xmlns:dc="http://purl.org/dc/elements/1.1/"
   xmlns:cc="http://creativecommons.org/ns#"
   xmlns:rdf="http://www.w3.org/1999/02/22-rdf-syntax-ns#"
   xmlns:svg="http://www.w3.org/2000/svg"
   xmlns="http://www.w3.org/2000/svg"
   xmlns:sodipodi="http://sodipodi.sourceforge.net/DTD/sodipodi-0.dtd"
   xmlns:inkscape="http://www.inkscape.org/namespaces/inkscape"
   version="1.1"
   id="Layer_1"
   x="0px"
   y="0px"
   width="42px"
   height="42px"
   viewBox="0 0 42 42"
   enable-background="new 0 0 42 42"
   xml:space="preserve"
   sodipodi:docname="MssqlBulkLoader.svg"
   inkscape:version="0.92.4 5da689c313, 2019-01-14"><metadata
   id="metadata29"><rdf:RDF><cc:Work
       rdf:about=""><dc:format>image/svg+xml</dc:format><dc:type
         rdf:resource="http://purl.org/dc/dcmitype/StillImage" /><dc:title /></cc:Work></rdf:RDF></metadata><defs
   id="defs27">
	
	
	
	
	
	
	
	
	
	
</defs><sodipodi:namedview
   pagecolor="#ffffff"
   bordercolor="#666666"
   borderopacity="1"
   objecttolerance="10"
   gridtolerance="10"
   guidetolerance="10"
   inkscape:pageopacity="0"
   inkscape:pageshadow="2"
   inkscape:window-width="1920"
   inkscape:window-height="1052"
   id="namedview25"
   showgrid="false"
   inkscape:zoom="7.9465333"
   inkscape:cx="3.4932115"
   inkscape:cy="14.26659"
   inkscape:window-x="1920"
   inkscape:window-y="0"
   inkscape:window-maximized="1"
   inkscape:current-layer="layer1" />

<g
   inkscape:groupmode="layer"
   id="layer1"
   inkscape:label="text"><g
   id="g104"><path
     id="polygon2"
     d="m 23.702,30.083 5.592,2.912 1.381,-1.883 -5.582,-2.818 z"
     style="fill:#ffebcd" /><path
     id="polygon4"
     d="m 25.425,35.063 5.695,2.875 v -5.853 l -1.547,2.109 -4.148,-2.162 z"
     style="fill:#ffebcd" /><path
     id="polygon6"
     d="M 33.149,34.149 31.56,31.788 v 6.268 l 5.929,-2.993 v -3.316 z"
     style="fill:#ffebcd" /><path
     id="polygon8"
     d="m 24.458,35.659 7,3.533 6.998,-3.533 v -4.446 l -0.033,0.018 v 4.407 l -6.965,3.517 -6.967,-3.517 v -4.092 l -0.033,-0.017 z"
     style="fill:#ffebcd" /><path
     id="polygon10"
     d="m 31.409,28.401 -2.704,-2.702 -0.39,0.165 0.336,0.805 -2.576,1.076 5.379,2.715 5.315,-2.746 -2.696,-1.125 0.335,-0.802 -0.272,-0.112 z"
     style="fill:#ffebcd" /><path
     id="polygon12"
     d="m 32.229,31.11 1.217,1.807 5.485,-3.033 -1.127,-1.653 z"
     style="fill:#ffebcd" /><path
     d="m 24.491,35.638 6.967,3.518 6.965,-3.518 v -4.406 l 0.033,-0.019 1.824,-1.009 -1.857,-2.811 -3.99,-1.666 -0.025,0.06 -0.334,0.802 2.695,1.125 -5.314,2.746 -5.379,-2.715 2.576,-1.076 -0.336,-0.805 -0.023,-0.056 -3.801,1.586 -2.211,3.002 2.178,1.133 0.033,0.017 v 4.092 z m 13.313,-7.407 1.127,1.652 -5.484,3.033 -1.217,-1.807 z m -6.244,3.557 1.59,2.361 4.34,-2.402 v 3.316 l -5.93,2.992 z m -0.44,6.15 -5.695,-2.875 v -3.031 l 4.148,2.162 1.547,-2.109 z m -7.418,-7.855 1.391,-1.789 5.582,2.818 -1.381,1.883 z"
     id="path14"
     inkscape:connector-curvature="0"
     style="fill:#3d6480" /><path
     d="m 34.136,25.675 0.099,-0.099 -0.738,-0.738 -1.564,1.564 v -1.74 c 0,-2.803 -1.211,-4.055 -3.926,-4.055 v 1.045 c 2.156,0 2.883,0.76 2.883,3.01 v 1.746 l -1.65,-1.65 -0.738,0.738 0.204,0.204 2.704,2.702 z"
     id="path16"
     inkscape:connector-curvature="0"
     style="fill:#0cb20f" /><path
     d="m 4.4720409,10.050121 h 1.7302626 l 1.2005903,3.452637 1.2076527,-3.452637 H 10.337278 V 16.50167 H 9.0519401 v -4.718748 l -1.214715,3.478564 H 6.9756249 L 5.76091,11.782922 V 16.50167 H 4.4720409 Z"
     style="font-style:normal;font-variant:normal;font-weight:bold;font-stretch:normal;font-size:8px;line-height:1.25;font-family:sans-serif;-inkscape-font-specification:'sans-serif, Bold';font-variant-ligatures:normal;font-variant-caps:normal;font-variant-numeric:normal;font-feature-settings:normal;text-align:start;letter-spacing:0px;word-spacing:0px;writing-mode:lr-tb;text-anchor:start;fill:#3d6480;fill-opacity:1;stroke:none;stroke-width:1.83443487"
     id="path69"
     inkscape:connector-curvature="0" /><path
     d="m 15.344446,10.253218 v 1.365498 q -0.434331,-0.237665 -0.847476,-0.358659 -0.413144,-0.120993 -0.780383,-0.120993 -0.487298,0 -0.720355,0.164205 -0.233055,0.164206 -0.233055,0.509901 0,0.259272 0.155371,0.406192 0.158901,0.1426 0.572045,0.246308 l 0.579108,0.142601 q 0.879256,0.216059 1.250027,0.656822 0.370771,0.440761 0.370771,1.253147 0,1.067336 -0.519079,1.5902 -0.515548,0.518544 -1.578424,0.518544 -0.501422,0 -1.006377,-0.116673 -0.504954,-0.116671 -1.009908,-0.345695 v -1.404389 q 0.504954,0.328411 0.974597,0.496938 0.473174,0.164205 0.911036,0.164205 0.444925,0 0.681511,-0.18149 0.236587,-0.181491 0.236587,-0.518544 0,-0.302484 -0.162432,-0.466689 -0.158902,-0.164206 -0.639138,-0.293842 l -0.526141,-0.142599 q -0.790977,-0.207417 -1.158217,-0.661144 -0.363708,-0.453725 -0.363708,-1.222898 0,-0.963627 0.508485,-1.482171 0.508485,-0.5185439 1.461896,-0.5185439 0.434331,0 0.89338,0.082103 0.45905,0.07778 0.949879,0.237666 z"
     style="font-style:normal;font-variant:normal;font-weight:bold;font-stretch:normal;font-size:8px;line-height:1.25;font-family:sans-serif;-inkscape-font-specification:'sans-serif, Bold';font-variant-ligatures:normal;font-variant-caps:normal;font-variant-numeric:normal;font-feature-settings:normal;text-align:start;letter-spacing:0px;word-spacing:0px;writing-mode:lr-tb;text-anchor:start;fill:#3d6480;fill-opacity:1;stroke:none;stroke-width:1.83443487"
     id="path71"
     inkscape:connector-curvature="0" /><path
     d="m 23.070598,10.253218 v 1.365498 q -0.434331,-0.237665 -0.847476,-0.358659 -0.413144,-0.120993 -0.780383,-0.120993 -0.487298,0 -0.720355,0.164205 -0.233055,0.164206 -0.233055,0.509901 0,0.259272 0.155371,0.406192 0.158901,0.1426 0.572045,0.246308 l 0.579108,0.142601 q 0.879256,0.216059 1.250027,0.656822 0.370771,0.440761 0.370771,1.253147 0,1.067336 -0.519079,1.5902 -0.515547,0.518544 -1.578424,0.518544 -0.501422,0 -1.006377,-0.116673 -0.504954,-0.116671 -1.009908,-0.345695 v -1.404389 q 0.504954,0.328411 0.974597,0.496938 0.473174,0.164205 0.911036,0.164205 0.444925,0 0.681511,-0.18149 0.236588,-0.181491 0.236588,-0.518544 0,-0.302484 -0.162433,-0.466689 -0.158902,-0.164206 -0.639138,-0.293842 l -0.526141,-0.142599 q -0.790977,-0.207417 -1.158217,-0.661144 -0.363708,-0.453725 -0.363708,-1.222898 0,-0.963627 0.508485,-1.482171 0.508485,-0.5185439 1.461896,-0.5185439 0.434331,0 0.89338,0.082103 0.45905,0.07778 0.949879,0.237666 z"
     style="font-style:normal;font-variant:normal;font-weight:bold;font-stretch:normal;font-size:8px;line-height:1.25;font-family:sans-serif;-inkscape-font-specification:'sans-serif, Bold';font-variant-ligatures:normal;font-variant-caps:normal;font-variant-numeric:normal;font-feature-settings:normal;text-align:start;letter-spacing:0px;word-spacing:0px;writing-mode:lr-tb;text-anchor:start;fill:#3d6480;fill-opacity:1;stroke:none;stroke-width:1.83443487"
     id="path73"
     inkscape:connector-curvature="0" /><path
     d="m 27.16673,16.618342 h -0.105934 q -1.302994,0 -2.02688,-0.881524 -0.723885,-0.881524 -0.723885,-2.45444 0,-1.568595 0.720354,-2.458762 0.723885,-0.8901669 1.991568,-0.8901669 1.281807,0 1.995098,0.8815239 0.716823,0.881525 0.716823,2.467405 0,1.088941 -0.381364,1.875399 -0.377833,0.786458 -1.091124,1.184009 l 1.062875,1.451922 H 28.02833 Z m -0.144777,-5.479278 q -0.621482,0 -0.964003,0.561755 -0.342522,0.561756 -0.342522,1.581559 0,1.037087 0.335459,1.5902 0.335459,0.548792 0.971066,0.548792 0.625013,0 0.967535,-0.561756 0.342521,-0.561756 0.342521,-1.577236 0,-1.019803 -0.342521,-1.581559 -0.342522,-0.561755 -0.967535,-0.561755 z"
     style="font-style:normal;font-variant:normal;font-weight:bold;font-stretch:normal;font-size:8px;line-height:1.25;font-family:sans-serif;-inkscape-font-specification:'sans-serif, Bold';font-variant-ligatures:normal;font-variant-caps:normal;font-variant-numeric:normal;font-feature-settings:normal;text-align:start;letter-spacing:0px;word-spacing:0px;writing-mode:lr-tb;text-anchor:start;fill:#3d6480;fill-opacity:1;stroke:none;stroke-width:1.83443487"
     id="path75"
     inkscape:connector-curvature="0" /><path
     d="M 30.757908,10.050121 H 32.1174 v 5.19408 h 2.387056 v 1.257469 h -3.746548 z"
     style="font-style:normal;font-variant:normal;font-weight:bold;font-stretch:normal;font-size:8px;line-height:1.25;font-family:sans-serif;-inkscape-font-specification:'sans-serif, Bold';font-variant-ligatures:normal;font-variant-caps:normal;font-variant-numeric:normal;font-feature-settings:normal;text-align:start;letter-spacing:0px;word-spacing:0px;writing-mode:lr-tb;text-anchor:start;fill:#3d6480;fill-opacity:1;stroke:none;stroke-width:1.83443487"
     id="path77"
     inkscape:connector-curvature="0" /></g>

</g></svg>